<svg width="80" height="80" viewBox="0 0 80 80" fill="none" xmlns="http://www.w3.org/2000/svg">
<path d="M51.053 21.2516V23.7223L28.1508 23.7227V21.2516C28.1508 20.4293 28.4775 19.6405 29.0593 19.059L29.0593 19.059C29.6408 18.4774 30.4293 18.1508 31.252 18.1508V18.1505L47.9519 18.1508C48.7746 18.1508 49.563 18.4775 50.1445 19.059L50.1799 19.0236L50.1445 19.059C50.7264 19.6405 51.053 20.4293 51.053 21.2516ZM53.2535 21.2516C53.2535 19.8456 52.6951 18.4972 51.7007 17.5028C50.7066 16.5088 49.3579 15.95 47.9519 15.95H31.2516C29.8456 15.95 28.4969 16.5088 27.5028 17.5028C26.5084 18.4972 25.95 19.8456 25.95 21.2516V58.7484C25.95 60.1544 26.5084 61.5028 27.5028 62.4972C28.4969 63.4912 29.8456 64.05 31.2516 64.05H47.9519C49.3579 64.05 50.7066 63.4912 51.7007 62.4972C52.6951 61.5028 53.2535 60.1544 53.2535 58.7484V21.2516ZM50.144 60.9413L50.1793 60.9767L50.144 60.9413C49.5625 61.5228 48.7744 61.8494 47.9517 61.8494H31.2515C30.4288 61.8494 29.6403 61.5228 29.0588 60.9413L29.0234 60.9767L29.0588 60.9413C28.4769 60.3598 28.1503 59.571 28.1503 58.7487V54.9647H51.0525V58.7487C51.0525 59.571 50.7259 60.3598 50.144 60.9413ZM51.0528 25.9232V52.7641H28.1507V25.9232H51.0528Z" fill="white" stroke="white" stroke-width="0.1"/>
<path d="M40.8621 57.3306H38.3939C37.8136 57.3306 37.3436 57.8006 37.3436 58.3808C37.3436 58.9611 37.8136 59.4311 38.3939 59.4311H40.8621C41.442 59.4311 41.9124 58.9611 41.9124 58.3808C41.9124 57.8006 41.442 57.3306 40.8621 57.3306Z" fill="white"/>
<path d="M36.8184 21.9345H42.4374C43.0177 21.9345 43.488 21.4641 43.488 20.8842C43.488 20.304 43.0177 19.834 42.4374 19.834H36.8184C36.2381 19.834 35.7681 20.304 35.7681 20.8842C35.7681 21.4641 36.2381 21.9345 36.8184 21.9345Z" fill="white"/>
</svg>
