<svg width="19" height="20" viewBox="0 0 19 20" fill="none" xmlns="http://www.w3.org/2000/svg">
  <path fill-rule="evenodd" clip-rule="evenodd" d="M0.25 9.71638C0.25 4.57997 4.4125 0.377441 9.5 0.377441C14.5875 0.377441 18.75 4.57997 18.75 9.71638C18.75 14.8528 14.5875 19.0553 9.5 19.0553C4.4125 19.0553 0.25 14.8528 0.25 9.71638ZM17.5167 9.71641C17.5167 5.20259 13.9709 1.62266 9.50006 1.62266C5.02923 1.62266 1.4834 5.20259 1.4834 9.71641C1.4834 14.2302 5.02923 17.8102 9.50006 17.8102C13.9709 17.8102 17.5167 14.2302 17.5167 9.71641ZM8.88281 4.26867H10.1161V12.0511H8.88281V4.26867ZM9.5002 15.3197C10.0111 15.3197 10.4252 14.9016 10.4252 14.3858C10.4252 13.87 10.0111 13.4519 9.5002 13.4519C8.98933 13.4519 8.5752 13.87 8.5752 14.3858C8.5752 14.9016 8.98933 15.3197 9.5002 15.3197Z" fill="#F7B500"/>
  </svg>