<svg xmlns="http://www.w3.org/2000/svg" viewBox="0 0 35 35" fill="none">
  <path fill-rule="evenodd" clip-rule="evenodd" d="M8.74244 10.6827C8.86696 9.93561 9.51339 9.388 10.2708 9.388L21.8126 9.388C22.77 9.388 23.4984 10.2478 23.341 11.1922L23.0948 12.6693H26.2558C26.8427 12.6693 27.3793 13.0008 27.6417 13.5258L29.6413 17.5249C29.7878 17.8178 29.8376 18.1496 29.7838 18.4726L29.1743 22.1297C29.0498 22.8769 28.4033 23.4245 27.6459 23.4245H27.4409C27.4657 23.2763 27.4787 23.124 27.4787 22.9687C27.4787 22.8135 27.4657 22.6612 27.4409 22.513H27.6459C27.9578 22.513 28.224 22.2875 28.2752 21.9799L28.8848 18.3228C28.9069 18.1898 28.8864 18.0531 28.8261 17.9325L28.5642 17.4088H25.2037C24.952 17.4088 24.748 17.2048 24.748 16.9531L24.748 14.7656C24.748 14.5139 24.952 14.3099 25.2037 14.3099H27.0147L26.8265 13.9334C26.7184 13.7172 26.4975 13.5807 26.2558 13.5807L22.9429 13.5807L21.4542 22.513L22.0477 22.513C22.2646 21.2198 23.3894 20.2344 24.7442 20.2344C26.2544 20.2344 27.4787 21.4586 27.4787 22.9687C27.4787 24.4789 26.2544 25.7031 24.7442 25.7031C23.3894 25.7031 22.2646 24.7177 22.0477 23.4245L14.7753 23.4245C14.8002 23.2763 14.8131 23.124 14.8131 22.9687C14.8131 22.8135 14.8002 22.6612 14.7753 22.513H20.5301L22.4419 11.0424C22.5067 10.6535 22.2068 10.2995 21.8126 10.2995L10.2708 10.2995C9.95895 10.2995 9.69277 10.5249 9.6415 10.8326L8.02556 20.5282C7.97599 20.8257 8.14144 21.1172 8.42223 21.2272L9.65139 21.7086C10.1071 20.8326 11.023 20.2344 12.0787 20.2344C13.5889 20.2344 14.8131 21.4586 14.8131 22.9687C14.8131 24.4789 13.5889 25.7031 12.0787 25.7031C10.5686 25.7031 9.34434 24.4789 9.34434 22.9687C9.34434 22.8361 9.35378 22.7056 9.37204 22.578L8.08984 22.0759C7.40792 21.8088 7.00611 21.1008 7.1265 20.3784L8.74244 10.6827ZM27.4705 15.2213L28.1085 16.4974H25.6595V15.2213L27.4705 15.2213ZM13.9016 22.9687C13.9016 23.9755 13.0855 24.7916 12.0787 24.7916C11.0719 24.7916 10.2558 23.9755 10.2558 22.9687C10.2558 21.962 11.0719 21.1458 12.0787 21.1458C13.0855 21.1458 13.9016 21.962 13.9016 22.9687ZM26.5672 22.9687C26.5672 23.9755 25.751 24.7916 24.7442 24.7916C23.7375 24.7916 22.9213 23.9755 22.9213 22.9687C22.9213 21.962 23.7375 21.1458 24.7442 21.1458C25.751 21.1458 26.5672 21.962 26.5672 22.9687Z" fill="#333333"/>
  <path d="M3.737 12.0312C3.737 11.7795 3.94104 11.5755 4.19273 11.5755H7.15679C7.40848 11.5755 7.61252 11.7795 7.61252 12.0312C7.61252 12.2829 7.40848 12.487 7.15679 12.487H4.19273C3.94104 12.487 3.737 12.2829 3.737 12.0312Z" fill="#333333"/>
  <path d="M4.19273 14.3099C3.94104 14.3099 3.737 14.5139 3.737 14.7656C3.737 15.0173 3.94104 15.2213 4.19273 15.2213H6.71929C6.97098 15.2213 7.17502 15.0173 7.17502 14.7656C7.17502 14.5139 6.97098 14.3099 6.71929 14.3099H4.19273Z" fill="#333333"/>
  <path d="M3.737 17.5C3.737 17.2483 3.94104 17.0443 4.19273 17.0443H6.39117C6.64286 17.0443 6.8469 17.2483 6.8469 17.5C6.8469 17.7517 6.64286 17.9557 6.39117 17.9557H4.19273C3.94104 17.9557 3.737 17.7517 3.737 17.5Z" fill="#333333"/>
</svg>