<svg xmlns="http://www.w3.org/2000/svg" viewBox="0 0 40 41" fill="none">
<path fill-rule="evenodd" clip-rule="evenodd" d="M22.5 15.5C22.5 16.8807 21.3807 18 20 18C18.6193 18 17.5 16.8807 17.5 15.5C17.5 14.1193 18.6193 13 20 13C21.3807 13 22.5 14.1193 22.5 15.5ZM21.4584 15.5C21.4584 16.3054 20.8054 16.9583 20 16.9583C19.1946 16.9583 18.5417 16.3054 18.5417 15.5C18.5417 14.6946 19.1946 14.0417 20 14.0417C20.8054 14.0417 21.4584 14.6946 21.4584 15.5Z" fill="#333333"/>
<path fill-rule="evenodd" clip-rule="evenodd" d="M20.7225 22.4067C22.1074 21.2046 25 18.3523 25 15.5C25 12.7386 22.7614 10.5 20 10.5C17.2386 10.5 15 12.7386 15 15.5C15 18.3523 17.8926 21.2046 19.2776 22.4067C19.6971 22.7709 20.3029 22.7709 20.7225 22.4067ZM22.5411 18.9554C23.3901 17.8 23.9584 16.5953 23.9584 15.5C23.9584 13.3139 22.1861 11.5417 20 11.5417C17.8139 11.5417 16.0417 13.3139 16.0417 15.5C16.0417 16.5953 16.61 17.8 17.4589 18.9554C18.2913 20.0883 19.2974 21.0445 19.9604 21.6201C19.971 21.6293 19.9793 21.6333 19.9846 21.6353C19.9902 21.6374 19.9953 21.6382 20 21.6382C20.0047 21.6382 20.0098 21.6374 20.0154 21.6353C20.0207 21.6333 20.029 21.6293 20.0396 21.6201C20.7027 21.0445 21.7088 20.0883 22.5411 18.9554Z" fill="#333333"/>
<path fill-rule="evenodd" clip-rule="evenodd" d="M10.8335 17.0625H13.9625C14.0574 17.4194 14.1805 17.7674 14.324 18.1042H10.8335C10.6609 18.1042 10.521 18.2441 10.521 18.4167V30.3958H15.7292V25.9167C15.7292 25.629 15.9624 25.3958 16.25 25.3958H23.75C24.0377 25.3958 24.2709 25.629 24.2709 25.9167V30.3958H29.4793V18.4167C29.4793 18.2441 29.3394 18.1042 29.1668 18.1042H25.6761C25.8195 17.7674 25.9426 17.4194 26.0376 17.0625H29.1668C29.9147 17.0625 30.521 17.6688 30.521 18.4167V30.3958H31.25C31.5377 30.3958 31.7709 30.629 31.7709 30.9167C31.7709 31.2043 31.5377 31.4375 31.25 31.4375H8.75002C8.46237 31.4375 8.22919 31.2043 8.22919 30.9167C8.22919 30.629 8.46237 30.3958 8.75002 30.3958H9.47929V18.4167C9.47929 17.6688 10.0856 17.0625 10.8335 17.0625ZM23.2292 26.4375V30.3958H16.7709V26.4375H23.2292Z" fill="#333333"/>
</svg>