<?xml version="1.0" encoding="UTF-8"?><svg viewBox="0 0 149 148" fill="none" xmlns="http://www.w3.org/2000/svg"><path d="M118.352 74.0003C118.352 98.219 98.7187 117.852 74.5 117.852C50.2813 117.852 30.6482 98.219 30.6482 74.0003C30.6482 49.7816 50.2813 30.1484 74.5 30.1484C98.7187 30.1484 118.352 49.7816 118.352 74.0003Z" fill="#E9EDF1"/><path fill-rule="evenodd" clip-rule="evenodd" d="M74.5 31.1766C50.8489 31.1766 31.6759 50.3496 31.6759 74.0007C31.6759 97.6518 50.8489 116.825 74.5 116.825C98.1511 116.825 117.324 97.6518 117.324 74.0007C117.324 50.3496 98.1511 31.1766 74.5 31.1766ZM29.6204 74.0007C29.6204 49.2144 49.7137 29.1211 74.5 29.1211C99.2864 29.1211 119.38 49.2144 119.38 74.0007C119.38 98.7871 99.2864 118.88 74.5 118.88C49.7137 118.88 29.6204 98.7871 29.6204 74.0007Z" fill="#A9B5C0"/><path d="M36.8579 77.4176C37.0257 76.9945 37.3927 76.6824 37.8373 76.5846L55.8132 72.6299L74.5 76.741L93.1869 72.6299L111.163 76.5846C111.607 76.6824 111.974 76.9945 112.142 77.4176L122.938 104.633C123.332 105.625 122.491 106.665 121.439 106.49L99.1667 102.778L74.5 106.889L49.8334 102.778L27.5608 106.49C26.5086 106.665 25.6684 105.625 26.0617 104.633L36.8579 77.4176Z" fill="white"/><path fill-rule="evenodd" clip-rule="evenodd" d="M55.8132 71.5771L74.5001 75.6883L93.1869 71.5771L111.384 75.5804C112.162 75.7516 112.804 76.2979 113.098 77.0383L123.894 104.254C124.582 105.989 123.112 107.81 121.27 107.504L99.1667 103.82L74.5001 107.931L49.8334 103.82L27.7297 107.504C25.8885 107.81 24.418 105.989 25.1063 104.254L35.9025 77.0383C36.1963 76.2979 36.8385 75.7516 37.6164 75.5804L55.8132 71.5771ZM51.0477 101.938L73.4723 105.676V77.5669L56.6172 73.8587L51.0477 101.938ZM54.4993 73.9709L48.9635 101.881L27.3918 105.476C27.1288 105.52 26.9187 105.26 27.017 105.012L37.8132 77.7962C37.8552 77.6905 37.9469 77.6124 38.0581 77.588L54.4993 73.9709ZM75.5278 77.5669V105.676L97.9524 101.938L92.3829 73.8587L75.5278 77.5669ZM94.5008 73.9709L100.037 101.881L121.608 105.476C121.871 105.52 122.081 105.26 121.983 105.012L111.187 77.7962C111.145 77.6905 111.053 77.6124 110.942 77.588L94.5008 73.9709Z" fill="#8998A7"/><path d="M36.8579 77.4169L26.0617 104.632C25.6684 105.624 26.5086 106.665 27.5608 106.489L48.8988 102.933C49.4612 102.839 49.9068 102.407 50.0177 101.848L55.4056 74.6843C55.5978 73.715 54.7321 72.867 53.7669 73.0793L37.8373 76.5839C37.3927 76.6817 37.0257 76.9938 36.8579 77.4169Z" fill="#E9EDF1"/>
    <path d="M76.0957 106.622L97.7729 103.01C98.5357 102.882 99.0422 102.15 98.8918 101.391L93.4591 74.0015C93.3097 73.2482 92.5705 72.7648 91.8205 72.9298L75.576 76.5036C74.9476 76.6418 74.5 77.1986 74.5 77.8419V105.271C74.5 106.118 75.2604 106.762 76.0957 106.622Z" fill="#E9EDF1"/>
    <path fill-rule="evenodd" clip-rule="evenodd" d="M92.451 74.2022C92.4136 74.0138 92.2288 73.893 92.0413 73.9342L75.7968 77.508C75.6397 77.5426 75.5278 77.6818 75.5278 77.8426V105.271C75.5278 105.483 75.7179 105.644 75.9267 105.609L97.6039 101.996C97.7946 101.965 97.9213 101.782 97.8837 101.592L92.451 74.2022ZM91.5997 71.9267C92.9122 71.6379 94.2058 72.484 94.4673 73.8022L99.8999 101.192C100.163 102.519 99.2767 103.802 97.9419 104.024L76.2647 107.637C74.8029 107.881 73.4723 106.753 73.4723 105.271V77.8426C73.4723 76.7167 74.2555 75.7424 75.3551 75.5005L91.5997 71.9267ZM54.3974 74.485C54.4455 74.2427 54.229 74.0307 53.9877 74.0838L38.0581 77.5883C37.9469 77.6128 37.8552 77.6908 37.8132 77.7966L27.017 105.012C26.9187 105.26 27.1288 105.52 27.3918 105.476L48.7298 101.92C48.8704 101.897 48.9818 101.788 49.0096 101.649L54.3974 74.485ZM53.5461 72.0762C55.2351 71.7047 56.7501 73.1886 56.4137 74.8849L51.0258 102.049C50.8317 103.027 50.0519 103.784 49.0678 103.948L27.7297 107.504C25.8885 107.811 24.418 105.989 25.1063 104.254L26.0595 104.632L25.1063 104.254L35.9025 77.0386C36.1963 76.2982 36.8385 75.7519 37.6164 75.5808L53.5461 72.0762Z" fill="#8998A7"/>
    <path fill-rule="evenodd" clip-rule="evenodd" d="M61.1476 81.9411C61.681 82.135 61.9562 82.7247 61.7622 83.2582C61.588 83.7373 61.3756 84.223 61.129 84.712C60.8734 85.2189 60.2553 85.4225 59.7485 85.1669C59.2416 84.9113 59.038 84.2932 59.2936 83.7864C59.5078 83.3617 59.6869 82.9505 59.8304 82.5557C60.0244 82.0223 60.6141 81.7471 61.1476 81.9411ZM58.4247 87.108C58.8629 87.4688 58.9256 88.1166 58.5647 88.5547C57.9453 89.3069 57.2593 90.0575 56.5147 90.796C56.1117 91.1957 55.4609 91.193 55.0612 90.79C54.6615 90.387 54.6641 89.7362 55.0672 89.3365C55.7659 88.6434 56.4051 87.9437 56.978 87.248C57.3388 86.8098 57.9866 86.7472 58.4247 87.108ZM53.2882 92.331C53.6341 92.7811 53.5497 93.4263 53.0997 93.7723C52.3162 94.3746 51.4945 94.9578 50.6395 95.5148C50.1639 95.8247 49.5272 95.6904 49.2173 95.2148C48.9075 94.7392 49.0418 94.1024 49.5174 93.7926C50.3274 93.2648 51.1055 92.7125 51.8469 92.1426C52.297 91.7966 52.9422 91.881 53.2882 92.331ZM47.1788 96.3801C47.4305 96.8889 47.2222 97.5054 46.7135 97.7571C45.8167 98.2009 44.8955 98.612 43.954 98.9839C43.426 99.1924 42.829 98.9335 42.6205 98.4056C42.4119 97.8776 42.6708 97.2806 43.1988 97.0721C44.0852 96.7219 44.9542 96.3343 45.8017 95.9148C46.3105 95.6631 46.927 95.8714 47.1788 96.3801ZM40.384 99.1223C40.5181 99.6738 40.1796 100.23 39.6281 100.364C38.6457 100.603 37.6491 100.794 36.6423 100.931C36.0799 101.008 35.5618 100.614 35.4851 100.052C35.4083 99.4893 35.8021 98.9712 36.3645 98.8945C37.298 98.7671 38.2253 98.5893 39.1425 98.3663C39.6941 98.2323 40.2499 98.5707 40.384 99.1223ZM29.6255 99.9343C29.682 99.3695 30.1856 98.9574 30.7505 99.0139C31.217 99.0606 31.6839 99.0923 32.1507 99.1097C32.7179 99.1309 33.1606 99.608 33.1394 100.175C33.1182 100.742 32.6411 101.185 32.0739 101.164C31.5653 101.145 31.0558 101.11 30.5459 101.059C29.9811 101.003 29.569 100.499 29.6255 99.9343Z" fill="#758595"/>
    <path fill-rule="evenodd" clip-rule="evenodd" d="M82.3698 50.5304C82.6014 49.253 82.7224 47.937 82.7224 46.5928C82.7224 34.4835 72.9059 24.667 60.7966 24.667C48.6873 24.667 38.8708 34.4835 38.8707 46.5928C38.8707 46.5928 38.8707 46.5928 38.8706 46.5928C38.8706 46.5928 38.8705 46.5929 38.8705 46.5929C38.8705 46.7189 38.8717 46.8448 38.8739 46.9706C38.894 48.162 39.0092 49.3303 39.2121 50.4681C41.2749 62.3823 52.1645 73.1965 57.6429 77.9811C59.4729 79.5793 62.1199 79.5793 63.9499 77.9811C69.4188 73.2048 80.2799 62.4199 82.3698 50.5304Z" fill="#CAD1D9"/>
    <path fill-rule="evenodd" clip-rule="evenodd" d="M80.3472 50.1636C80.557 49.0067 80.6668 47.8135 80.6668 46.5928C80.6668 35.6188 71.7706 26.7225 60.7966 26.7225C49.8225 26.7225 40.9263 35.6187 40.9263 46.5928C40.9263 46.6011 40.9262 46.6095 40.9261 46.6178C40.9263 46.7232 40.9273 46.8287 40.9291 46.9342L40.9292 46.9359C40.9474 48.0174 41.0519 49.0766 41.2357 50.1072L41.2376 50.1174C42.1886 55.6107 45.2096 60.983 48.7793 65.6492C52.3321 70.2935 56.3157 74.0928 58.995 76.4329C60.0505 77.3547 61.5423 77.3547 62.5977 76.4329C65.2724 74.0969 69.2468 70.3067 72.795 65.6734C76.3599 61.0183 79.3814 55.6579 80.3453 50.1745L80.3472 50.1636ZM40.8977 46.9347C40.8976 46.9353 40.8975 46.9359 40.8974 46.9365C40.8291 47.3402 40.6423 47.7071 40.3721 47.9967C40.6417 47.7084 40.8291 47.3425 40.8974 46.9365C40.8975 46.9359 40.8976 46.9353 40.8977 46.9347ZM38.9656 48.6462C38.9238 48.1966 38.8957 47.743 38.8815 47.2859C38.8782 47.181 38.8757 47.0759 38.8739 46.9706C38.8717 46.8448 38.8705 46.7189 38.8705 46.5929C38.8706 34.4837 48.6873 24.667 60.7966 24.667C72.9059 24.667 82.7224 34.4835 82.7224 46.5928C82.7224 47.937 82.6014 49.253 82.3698 50.5304C80.2799 62.4199 69.4188 73.2048 63.9499 77.9811C62.1199 79.5793 59.4729 79.5793 57.6429 77.9811C52.1645 73.1965 41.2749 62.3823 39.2121 50.4681C39.1052 49.8689 39.0227 49.2612 38.9656 48.6462Z" fill="#758595"/>
    <path d="M74.8917 46.5933C74.8917 54.3779 68.5811 60.6885 60.7965 60.6885C53.0119 60.6885 46.7012 54.3779 46.7012 46.5933C46.7012 38.8087 53.0119 32.498 60.7965 32.498C68.5811 32.498 74.8917 38.8087 74.8917 46.5933Z" fill="white"/>
    </svg>