<?xml version="1.0" encoding="UTF-8"?> <svg viewBox="0 0 250 250" version="1.1" xmlns="http://www.w3.org/2000/svg" xmlns:xlink="http://www.w3.org/1999/xlink"> <!-- Generator: sketchtool 61.2 (101010) - https://sketch.com --> <title>4F1BB232-3FB2-4AC3-9F75-3A193368ECE0</title> <desc>Created with sketchtool.</desc><defs><path d="M165.697912,62.5031243 L165.697912,123.096874 L156.583329,123.096874 L156.583329,71.4822909 L71.6041663,71.4822909 L71.6041663,178.513541 L116.874998,178.513541 L116.874998,187.503124 L62.5,187.503124 L62.5,62.5031243 L165.697912,62.5031243 Z M123.004167,132.649998 C132.785417,122.910415 148.681251,122.889582 158.441666,132.649998 C167.191666,141.420831 168.035416,155.035414 161.11875,164.816664 L161.11875,164.816664 L177.243749,180.931247 L171.274999,186.879163 L155.160417,170.774997 C150.847917,173.82708 145.795833,175.399997 140.733334,175.399997 C134.30625,175.399997 127.889584,172.972913 123.025001,168.087497 L123.025001,168.087497 L123.004167,168.087497 C118.275001,163.35833 115.681251,157.077081 115.681251,150.368748 C115.681251,143.691665 118.275001,137.389581 123.004167,132.649998 Z M140.733331,133.733332 C136.462497,133.733332 132.202081,135.368749 128.962498,138.608332 C125.806248,141.754166 124.087498,145.931249 124.087498,150.368749 C124.087498,154.827083 125.806248,159.004166 128.952081,162.139583 L128.952081,162.139583 L128.962498,162.139583 C135.431247,168.629167 145.993747,168.629167 152.504164,162.139583 C158.98333,155.65 158.972914,145.097916 152.493747,138.597916 C149.243747,135.368749 144.983331,133.733332 140.733331,133.733332 Z M102.916667,146.03125 L102.916667,155.020833 L85.8749996,155.020833 L85.8749996,146.03125 L102.916667,146.03125 Z M113.333332,118.187499 L113.333332,127.166666 L85.8749996,127.166666 L85.8749996,118.187499 L113.333332,118.187499 Z M142.333334,90.3333318 L142.333334,99.3333318 L85.8749996,99.3333318 L85.8749996,90.3333318 L142.333334,90.3333318 Z" id="path-1"></path> </defs> <g id="Asset-Artboard-Page" stroke="none" stroke-width="1" fill="none" fill-rule="evenodd"> <g id="icon/basics/notSearch-icon/otros/notSearch"> <mask id="mask-2" fill="white"> <use xlink:href="#path-1"></use> </mask> <use id="Fill-6" fill="#BBBBBB" xlink:href="#path-1"></use> <g id="Color/Silver" mask="url(#mask-2)" fill="#BBBBBB" fill-rule="nonzero"> <g transform="translate(-31.250000, -31.250000)" id="Silver"> <rect x="0" y="0" width="312.5" height="312.5"></rect> </g> </g> </g> </g> </svg>