<svg xmlns="http://www.w3.org/2000/svg" fill="#3E4B58"><path d="M9.112 13.757c.087 0 .174.034.25.082a.57.57 0 01.205.404.574.574 0 01-.114.353.672.672 0 00-.026.038c-.48.545-1.144.866-1.84.866-1.423.012-2.576-1.247-2.587-2.789.011-1.577 1.077-2.788 2.49-2.798a2.246 2.246 0 012.066 1.235s.031.07-.045.083l-.782.131c-.02 0-.042 0-.065-.012l-.01-.012a1.42 1.42 0 00-1.088-.44 1.59 1.59 0 00-1.13.486c-.674.676-.707 1.816-.087 2.55.62.734 1.662.77 2.338.095a.848.848 0 01.027-.027.637.637 0 00.082-.092.417.417 0 01.316-.153zM18.356 14.515l.521.57c.076.094.12.213.123.342 0 .272-.196.486-.446.486a.473.473 0 01-.25-.083l-1.174-1.305-.011-.012a2.952 2.952 0 01-.239-.297.958.958 0 01-.238-.64c0-.354.196-.687.62-.794.423-.107.717-.33.717-.759 0-.425-.37-.758-.793-.758h-.979v3.792a.096.096 0 01-.022.059c-.011.012-.022.012-.034.012l-.729.119h-.01c-.01.012-.032.012-.054 0-.019-.008-.022-.018-.03-.043l-.003-.015v-4.792c0-.022.01-.046.022-.058.02-.013.031-.013.053-.013h1.772c.836 0 1.685.606 1.685 1.71 0 .938-.479 1.424-1.197 1.59l-.109.024.805.865zM14.201 10.125c-.37 0-.577.284-.74.651l-1 2.324s-.012.025-.023.025-.022-.025-.022-.025l-.858-1.59-.261-.498c-.011-.024-.034-.049-.045-.049h-.022l-1.164.178a.036.036 0 00-.016.006.038.038 0 01-.017.006c-.011.012-.022.024-.022.058v4.199c.01.272.218.474.468.462.227-.012.412-.214.423-.462V12.2l1.273 2.325.272.498c0 .008.004.01.01.015a.062.062 0 01.012.01c.011 0 .023-.025.023-.025l.218-.498 1.273-2.847v3.712c0 .037.01.049.033.059h.065l.74-.12c.01 0 .033 0 .044-.011.011-.013.023-.025.023-.059v-4.4c-.023-.401-.317-.722-.687-.734z"></path><path fill-rule="evenodd" clip-rule="evenodd" d="M4.943 5.913C3.318 5.913 2 7.19 2 8.766v8.294c0 1.576 1.318 2.853 2.943 2.853h14.114c1.625 0 2.943-1.277 2.943-2.853V8.766c0-1.576-1.318-2.853-2.943-2.853H4.943zM19.057 7.34H4.943c-.812 0-1.471.64-1.471 1.427v8.294c0 .788.659 1.427 1.471 1.427h14.114c.812 0 1.471-.639 1.471-1.427V8.766c0-.788-.659-1.426-1.471-1.426z" fill="currentColor"></path></svg>