<svg  viewBox="0 0 34 16" fill="none" xmlns="http://www.w3.org/2000/svg">
<path d="M21.2336 9.03506C21.5027 9.03506 21.6145 8.81469 21.6012 8.68351V8.05562V7.69008L21.6031 7.68483H20.0019V6.07576L19.9867 6.07925L20.0019 6.06876H18.6243C18.3021 6.06526 18.1638 6.33111 18.1828 6.49202V7.24234V7.68483H17.0193V9.02632H18.1828V10.9922V11.6096C18.1828 12.7954 19.1151 13.2536 20.3278 13.2536C20.7561 13.2536 21.2052 13.2204 21.6031 13.0857V11.6865C21.4458 11.8212 21.0593 11.844 20.8641 11.844C20.1459 11.844 20.0246 11.4907 20.0057 10.9922C20.0057 10.9432 20.0019 10.8907 20.0019 10.8418V9.03506H21.2336Z" fill="#333333"/>
<path fill-rule="evenodd" clip-rule="evenodd" d="M1.84376 8.38714C2.1261 7.98662 2.83859 7.52313 3.67425 7.52313C5.4441 7.52313 6.61327 8.70021 6.61327 10.367C6.61327 10.5804 6.59053 10.785 6.55074 10.9931C6.30819 12.2542 5.34746 13.2966 3.88837 13.2966C3.12283 13.2966 2.26253 13.1059 1.84755 12.5707H1.82102V15.147C1.76796 15.4793 1.57847 15.8519 1.01378 15.9131H0V7.6613H1.81912V8.38714H1.84376ZM1.93026 10.9917C2.13302 11.4884 2.61054 11.8015 3.2965 11.8015C3.97678 11.8015 4.45619 11.4884 4.65705 10.9917C4.72906 10.8203 4.76696 10.6244 4.76696 10.411C4.76696 9.58373 4.21364 9.01705 3.2965 9.01705C2.36989 9.01705 1.81846 9.58373 1.81846 10.411C1.81846 10.6244 1.85826 10.8185 1.93026 10.9917Z" fill="#333333"/>
<path d="M14.5457 7.57788C13.7972 7.57788 13.2609 7.8962 12.9653 8.24775L12.8686 8.37717C12.8686 8.37717 12.8743 8.2355 12.8686 8.18653V8.18303L12.8668 8.1603V8.13756L12.8649 8.13406L12.8611 8.10083L12.8497 8.06585L12.8421 8.03787L12.8289 7.99939L12.8118 7.96791L12.7929 7.93118L12.7701 7.89795L12.7379 7.86122L12.7076 7.83498L12.6678 7.8035L12.6337 7.78076L12.5749 7.75628L12.537 7.74229L12.4196 7.71605H11.0495V10.4218C11.0495 10.6211 11.0344 10.817 11.0003 10.9954C10.9036 11.4554 10.6383 11.8087 9.95805 11.8087C9.32325 11.8087 9.11481 11.4327 9.0466 10.9954C9.01628 10.7908 9.0087 10.5774 9.0087 10.3763V7.7143H7.69931C7.53824 7.72655 7.23126 7.79651 7.18958 8.14281V10.7121C7.18958 10.81 7.19905 10.8992 7.19905 10.9937C7.24832 12.3054 7.65383 13.2866 9.37631 13.2866C10.121 13.2866 10.6611 12.9665 10.9586 12.615L11.0211 12.531L11.1177 12.3736V12.6028V12.643V12.6517L11.1215 12.7007V12.7094L11.1253 12.7217L11.1386 12.7794L11.1424 12.7951L11.1613 12.8494L11.1651 12.8581C11.2201 12.9928 11.3451 13.1327 11.6199 13.1537H11.9932H12.8705V10.9937V10.4427C12.8705 9.73789 13.0108 9.05753 13.962 9.05753C14.8981 9.05753 14.9095 9.86207 14.9095 10.4865V10.9937V13.1519H16.7324V10.9937V10.1542C16.7286 8.69374 16.3856 7.57788 14.5457 7.57788Z" fill="#333333"/>
<path fill-rule="evenodd" clip-rule="evenodd" d="M22.0985 10.4238C22.0985 8.68353 23.5595 7.56067 25.39 7.56067C27.2167 7.56067 28.6815 8.68353 28.6834 10.4238C28.6834 10.6232 28.6549 10.8103 28.6189 10.994C28.3347 12.4036 27.0064 13.2869 25.39 13.2869C23.7698 13.2869 22.4415 12.4036 22.1573 10.994C22.1231 10.8103 22.0985 10.6232 22.0985 10.4238ZM24.0331 10.992C24.2321 11.4887 24.7134 11.8018 25.3918 11.8018C26.0701 11.8018 26.5514 11.4887 26.7504 10.992C26.8186 10.8224 26.8565 10.63 26.8565 10.4218C26.8565 9.60156 26.3051 9.04014 25.3918 9.04014C24.4784 9.04014 23.927 9.60156 23.927 10.4218C23.927 10.63 23.9649 10.8224 24.0331 10.992Z" fill="#333333"/>
<path d="M33.9279 10.9931C33.4807 9.50818 30.9301 10.0084 30.9301 9.27206C30.9301 8.9485 31.294 8.82607 31.599 8.82607C32.0349 8.82607 32.3854 8.98173 32.6507 9.28255L33.7706 8.26464C33.223 7.72944 32.3627 7.5528 31.5858 7.5528C30.3446 7.5528 29.1091 8.10898 29.1091 9.38575C29.1091 10.5383 30.0604 10.8199 30.9017 10.9931C31.5763 11.1295 32.1789 11.203 32.1789 11.586C32.1789 11.8798 31.7658 11.9778 31.3508 11.9778C30.807 11.9778 30.4033 11.7679 30.066 11.3866L28.9594 12.5147C29.543 13.0639 30.4526 13.2563 31.2769 13.2563C32.5427 13.2563 33.9999 12.8523 33.9999 11.4671C34.0018 11.2852 33.9734 11.1347 33.9279 10.9931Z" fill="#333333"/>
<path d="M2.80753 5.44299C3.07661 5.44299 3.31537 5.41326 3.52381 5.35379C3.73225 5.29433 3.92553 5.23311 4.10555 5.1719C4.18324 5.14042 4.24009 5.13517 4.2742 5.15266C4.30831 5.17015 4.33862 5.20863 4.36705 5.26459L4.65318 5.82427C4.69298 5.89598 4.70624 5.95195 4.69487 5.98693C4.6835 6.02366 4.65318 6.05514 4.60202 6.07963C4.29883 6.25103 3.98048 6.36646 3.64698 6.42593C3.31347 6.4854 2.98376 6.51513 2.65783 6.51513C2.19737 6.51513 1.79943 6.45216 1.46593 6.32449C1.13242 6.19681 0.855763 6.01491 0.639742 5.77705C0.423721 5.53919 0.264548 5.2471 0.160327 4.90255C0.0561067 4.558 0.00494385 4.16972 0.00494385 3.74122C0.00494385 3.31621 0.071266 2.92968 0.202015 2.58338C0.33466 2.23708 0.518467 1.938 0.753437 1.68964C0.988407 1.44128 1.27454 1.24889 1.60805 1.11422C1.94155 0.979548 2.31106 0.913086 2.71468 0.913086C3.00081 0.913086 3.28126 0.935823 3.55602 0.979548C3.83079 1.02327 4.09986 1.11247 4.36515 1.24714C4.42769 1.27863 4.46369 1.31011 4.47506 1.33984C4.48643 1.37132 4.47316 1.43079 4.43337 1.51824L4.17187 2.05518C4.14345 2.12864 4.11502 2.17236 4.08281 2.18811C4.05249 2.20385 3.99754 2.1986 3.91795 2.17236C3.7152 2.10415 3.5276 2.05518 3.35327 2.0202C3.17893 1.98697 2.98565 1.96948 2.77153 1.96948C2.54035 1.96948 2.33759 2.01496 2.16136 2.1059C1.98513 2.19685 1.83544 2.32103 1.71416 2.47844C1.59289 2.63585 1.50193 2.82299 1.44129 3.03812C1.37876 3.25325 1.34844 3.48761 1.34844 3.74122C1.34844 3.99482 1.37308 4.22569 1.42424 4.43382C1.4754 4.64195 1.55688 4.82035 1.66868 4.97076C1.78048 5.12118 1.93018 5.23836 2.11399 5.32056C2.30159 5.40277 2.53277 5.44299 2.80753 5.44299Z" fill="#333333"/>
<path d="M10.0166 3.29698H9.96542L9.62055 4.01931L8.92132 5.44999C8.85879 5.58467 8.79626 5.67561 8.73183 5.72284C8.6674 5.77006 8.57076 5.7928 8.44191 5.7928H7.97955C7.83932 5.7928 7.74268 5.77006 7.68962 5.72284C7.63657 5.67561 7.57593 5.58642 7.50771 5.44999L6.98471 4.43907L6.46172 3.38967H6.41055V6.27377C6.41055 6.34548 6.39729 6.39095 6.36886 6.4067C6.34044 6.42244 6.29117 6.42943 6.21727 6.42943H5.35887C5.29634 6.42943 5.24897 6.42244 5.21486 6.4067C5.18075 6.39095 5.1637 6.34723 5.1637 6.27377V1.52349C5.1637 1.32585 5.20349 1.18594 5.28497 1.10373C5.36645 1.02153 5.50478 0.979553 5.70185 0.979553H6.19074C6.34802 0.979553 6.46361 1.00754 6.53941 1.06176C6.6152 1.11598 6.68721 1.21042 6.75353 1.34509L7.67067 3.24276L8.19367 4.34638H8.22778L8.80005 3.13432L9.65844 1.36258C9.72666 1.22266 9.80056 1.12472 9.88205 1.067C9.96353 1.00929 10.0943 0.981302 10.2743 0.981302H10.6874C10.8674 0.981302 11.0019 1.01628 11.091 1.08624C11.1801 1.1562 11.2255 1.28913 11.2255 1.48676V6.27552C11.2255 6.34723 11.2123 6.3927 11.1839 6.40844C11.1554 6.42419 11.1062 6.43118 11.0323 6.43118H10.1985C10.136 6.43118 10.0905 6.42419 10.0602 6.40844C10.0298 6.3927 10.0147 6.34898 10.0147 6.27552V3.29698H10.0166Z" fill="#333333"/>
<path fill-rule="evenodd" clip-rule="evenodd" d="M16.1899 4.21189C16.1122 4.06847 15.9776 3.96003 15.7862 3.88133L15.7749 3.84635C16.0288 3.72217 16.2221 3.54202 16.3566 3.3094C16.4912 3.07504 16.5594 2.82668 16.5594 2.56258C16.5594 2.07986 16.3926 1.69683 16.0591 1.41174C15.7256 1.1284 15.2519 0.984985 14.6398 0.984985H12.5763C12.3754 0.984985 12.2409 1.02521 12.1726 1.10567C12.1063 1.18612 12.0722 1.3033 12.0722 1.45896V6.27046C12.0722 6.33167 12.0874 6.3754 12.1177 6.39814C12.148 6.42087 12.1973 6.43312 12.2655 6.43312H13.1675C13.2508 6.43312 13.3039 6.42262 13.3266 6.40513C13.3494 6.38589 13.3607 6.34217 13.3607 6.26871V4.22413H14.1775C14.4295 4.22413 14.6266 4.2731 14.7706 4.37105C14.9127 4.46899 15.0226 4.64564 15.0946 4.89924L15.466 6.27571C15.4944 6.35441 15.5418 6.39988 15.61 6.41213C15.6763 6.42437 15.7408 6.43137 15.8033 6.43137H16.6882C16.7546 6.43137 16.7962 6.40863 16.8095 6.3649C16.8228 6.32118 16.8247 6.28445 16.8133 6.25297L16.3831 4.69811C16.3339 4.51621 16.2676 4.35531 16.1899 4.21189ZM15.2191 2.42798C15.24 2.50144 15.2494 2.5714 15.2494 2.63786C15.2494 2.82326 15.1831 2.97542 15.0562 3.09435C14.9273 3.21153 14.7378 3.26925 14.4915 3.26925H13.3716V2.02571H14.5161C14.662 2.02571 14.7814 2.04495 14.878 2.08343C14.9728 2.12191 15.0486 2.17088 15.1054 2.23035C15.1623 2.28981 15.2002 2.35627 15.2191 2.42798Z" fill="#333333"/>
</svg>

