<svg fill="none" xmlns="http://www.w3.org/2000/svg" class="jsx-2079078408"><path d="M86.5 54c0 17.673-14.327 32-32 32-17.673 0-32-14.327-32-32 0-17.673 14.327-32 32-32 17.673 0 32 14.327 32 32z" fill="#E9EDF1"></path><path fill-rule="evenodd" clip-rule="evenodd" d="M54.5 22.75c-17.259 0-31.25 13.991-31.25 31.25S37.241 85.25 54.5 85.25 85.75 71.259 85.75 54 71.759 22.75 54.5 22.75zM21.75 54c0-18.087 14.663-32.75 32.75-32.75S87.25 35.913 87.25 54 72.587 86.75 54.5 86.75 21.75 72.087 21.75 54z" fill="#A9B5C0"></path><path d="M20.332 40.803a4 4 0 013.08-4.744l52.82-11.227a4 4 0 014.745 3.08l7.485 35.214a4 4 0 01-3.081 4.744L32.56 79.097a4 4 0 01-4.744-3.08l-7.485-35.214z" fill="#E9EDF1"></path><path fill-rule="evenodd" clip-rule="evenodd" d="M76.544 26.299l-52.82 11.227a2.5 2.5 0 00-1.925 2.965l7.485 35.214a2.5 2.5 0 002.965 1.925l52.82-11.227a2.5 2.5 0 001.925-2.965L79.51 28.224a2.5 2.5 0 00-2.966-1.925zm-53.131 9.76a4 4 0 00-3.081 4.744l7.485 35.213a4 4 0 004.744 3.081L85.38 67.87a4 4 0 003.08-4.744l-7.484-35.213a4 4 0 00-4.744-3.081l-52.82 11.227z" fill="#CAD1D9"></path><path d="M23.5 42a6 6 0 016-6h50a6 6 0 016 6v32a6 6 0 01-6 6h-50a6 6 0 01-6-6V42z" fill="#fff"></path><path fill-rule="evenodd" clip-rule="evenodd" d="M79.5 37.5h-50A4.5 4.5 0 0025 42v32a4.5 4.5 0 004.5 4.5h50A4.5 4.5 0 0084 74V42a4.5 4.5 0 00-4.5-4.5zm-50-1.5a6 6 0 00-6 6v32a6 6 0 006 6h50a6 6 0 006-6V42a6 6 0 00-6-6h-50z" fill="#758595"></path><path fill-rule="evenodd" clip-rule="evenodd" d="M31 68a1.5 1.5 0 011.5-1.5h10a1.5 1.5 0 010 3h-10A1.5 1.5 0 0131 68zm17 0a1.5 1.5 0 011.5-1.5h10a1.5 1.5 0 010 3h-10A1.5 1.5 0 0148 68zm18.5-1.5a1.5 1.5 0 000 3h10a1.5 1.5 0 000-3h-10z" fill="#758595"></path><path d="M31.5 47a2 2 0 012-2h6a2 2 0 012 2v4a2 2 0 01-2 2h-6a2 2 0 01-2-2v-4zM77.5 49a4 4 0 11-8 0 4 4 0 018 0z" fill="#CAD1D9"></path><path d="M71.5 49a4 4 0 11-8 0 4 4 0 018 0zM92.5 76c0 8.837-7.163 16-16 16s-16-7.163-16-16 7.163-16 16-16 16 7.163 16 16z" fill="#A9B5C0"></path><path fill-rule="evenodd" clip-rule="evenodd" d="M76.5 60.75c-8.422 0-15.25 6.828-15.25 15.25s6.828 15.25 15.25 15.25S91.75 84.422 91.75 76 84.922 60.75 76.5 60.75zM59.75 76c0-9.25 7.5-16.75 16.75-16.75S93.25 66.75 93.25 76s-7.5 16.75-16.75 16.75S59.75 85.25 59.75 76z" fill="#495867"></path><path fill-rule="evenodd" clip-rule="evenodd" d="M76.5 67a3.5 3.5 0 013.5 3.5v11a3.5 3.5 0 11-7 0v-11a3.5 3.5 0 013.5-3.5z" fill="#495867"></path><path fill-rule="evenodd" clip-rule="evenodd" d="M67.5 76a3.5 3.5 0 013.5-3.5h11a3.5 3.5 0 110 7H71a3.5 3.5 0 01-3.5-3.5z" fill="#495867"></path><path fill-rule="evenodd" clip-rule="evenodd" d="M76.5 68.5a2 2 0 012 2v11a2 2 0 11-4 0v-11a2 2 0 012-2z" fill="#fff"></path><path fill-rule="evenodd" clip-rule="evenodd" d="M69 76a2 2 0 012-2h11a2 2 0 110 4H71a2 2 0 01-2-2z" fill="#fff"></path></svg>