<?xml version="1.0" encoding="UTF-8" standalone="no"?><!DOCTYPE svg PUBLIC "-//W3C//DTD SVG 1.1//EN" "http://www.w3.org/Graphics/SVG/1.1/DTD/svg11.dtd"><svg width="100%" height="100%" viewBox="0 0 53 20" version="1.1" xmlns="http://www.w3.org/2000/svg" xmlns:xlink="http://www.w3.org/1999/xlink" xml:space="preserve" xmlns:serif="http://www.serif.com/" style="fill-rule:evenodd;clip-rule:evenodd;stroke-linejoin:round;stroke-miterlimit:2;"><rect id="Artboard3" x="0" y="0" width="53" height="20" style="fill:none;"/><clipPath id="_clip1"><rect x="0" y="0" width="53" height="20"/></clipPath><g clip-path="url(#_clip1)"><g><path d="M4.69,4.946c0.25,-1.118 0.485,-2.102 1.336,-2.936c0.584,-0.567 1.352,-0.9 2.17,-0.9c0,0 0.318,0 0.518,0.034l-0.067,0.416c-0,0 -0.434,-0.067 -0.701,0c-0.351,0.083 -0.552,0.234 -0.802,0.467c-0.45,0.45 -0.6,0.967 -0.885,2.185l-0.901,4.036l2.254,0l-0.134,0.534l-2.253,0l-1.419,6.272c-0.25,1.117 -0.484,2.102 -1.335,2.936c-0.584,0.567 -1.353,0.9 -2.187,0.9l-0.284,-0l0.15,-0.467c0.083,-0 0.184,-0 0.25,-0.017c0.451,-0.067 0.751,-0.217 1.002,-0.551c0.417,-0.534 0.517,-0.867 0.818,-2.067l1.569,-6.989l-2.204,0l0.133,-0.534l2.204,0l0.768,-3.319l0,-0Z" style="fill:#add500;fill-rule:nonzero;"/><path d="M35.306,10.817l-3.205,-0c0.217,-0.817 0.885,-2.118 2.07,-2.118c1.285,-0.017 1.319,1.284 1.135,2.118Zm-1.019,-2.786c-1.686,0 -3.188,1.135 -3.538,2.919c-0.601,3.035 1.652,3.603 2.604,3.603c0.818,-0 1.452,-0.283 1.936,-0.651l-0.434,-0.5c-0.35,0.217 -0.735,0.367 -1.185,0.367c-1.569,0 -1.786,-1.334 -1.703,-2.268l4.507,-0c0.467,-1.501 -0.034,-3.47 -2.188,-3.47" style="fill:#add500;fill-rule:nonzero;"/><path d="M15.826,3.478c-0,0 -1.886,8.106 -2.053,9.073c-0.25,1.501 0.534,1.718 0.951,1.785c0.768,0.116 1.269,-0.017 1.269,-0.017l0.083,-0.5c-0,-0 -0.284,0.099 -0.635,0.033c-0.484,-0.083 -0.551,-0.367 -0.433,-1.184c0.15,-0.951 2.136,-9.207 2.136,-9.207l-1.318,-0l-0,0.017Z" style="fill:#add500;fill-rule:nonzero;"/><path d="M39.195,3.478c-0,0 -1.886,8.106 -2.053,9.073c-0.25,1.501 0.534,1.718 0.951,1.785c0.768,0.116 1.269,-0.017 1.269,-0.017l0.083,-0.5c-0,-0 -0.284,0.099 -0.635,0.033c-0.484,-0.083 -0.551,-0.367 -0.433,-1.184c0.15,-0.951 2.137,-9.207 2.137,-9.207l-1.319,-0l-0,0.017Z" style="fill:#add500;fill-rule:nonzero;"/><path d="M42.082,3.478c0,0 -1.886,8.106 -2.053,9.073c-0.25,1.501 0.518,1.718 0.952,1.785c0.767,0.116 1.268,-0.017 1.268,-0.017l0.083,-0.5c0,-0 -0.283,0.099 -0.634,0.033c-0.484,-0.083 -0.551,-0.367 -0.434,-1.184c0.15,-0.951 2.137,-9.207 2.137,-9.207l-1.319,-0l0,0.017Z" style="fill:#add500;fill-rule:nonzero;"/><path d="M11.318,11.701c-0.15,0.5 -0.751,2.268 -2.17,2.268c-1.686,0 -0.868,-2.551 -0.735,-3.052c0.133,-0.483 0.751,-2.285 2.12,-2.285c1.653,0 0.934,2.568 0.784,3.069m0.751,-3.503l-0.15,0.634l-0.05,-0c-0.334,-0.634 -0.952,-0.818 -1.586,-0.818c-1.919,0 -3.022,1.585 -3.339,3.103c-0.467,2.168 0.201,3.419 2.003,3.419c0.785,-0 1.386,-0.201 2.154,-0.9l0.334,0.7l0.634,0l1.336,-6.137l-1.336,-0l0,-0.001Z" style="fill:#add500;fill-rule:nonzero;"/><path d="M21.432,11.701c-0.15,0.5 -0.751,2.268 -2.17,2.268c-1.686,0 -0.868,-2.551 -0.735,-3.052c0.133,-0.483 0.751,-2.302 2.103,-2.302c1.67,0.017 0.952,2.585 0.801,3.086m0.751,-3.503l-0.15,0.634l-0.034,-0c-0.333,-0.634 -0.951,-0.818 -1.585,-0.818c-1.92,0 -3.022,1.585 -3.339,3.103c-0.467,2.168 0.2,3.419 2.003,3.419c0.785,-0 1.386,-0.201 2.154,-0.9l0.334,0.7l0.634,0l1.336,-6.137l-1.353,-0l0,-0.001Z" style="fill:#add500;fill-rule:nonzero;"/><path d="M47.559,11.701c-0.15,0.5 -0.751,2.268 -2.17,2.268c-1.686,0 -0.868,-2.551 -0.735,-3.052c0.133,-0.483 0.735,-2.302 2.103,-2.302c1.67,0.017 0.951,2.585 0.801,3.086m0.751,-3.503l-0.15,0.634l-0.034,-0c-0.35,-0.634 -0.951,-0.818 -1.585,-0.818c-1.92,0 -3.005,1.585 -3.339,3.103c-0.467,2.168 0.2,3.419 2.003,3.419c0.785,-0 1.386,-0.201 2.154,-0.9l0.334,0.7l0.634,0l1.336,-6.137l-1.353,-0l0,-0.001Z" style="fill:#add500;fill-rule:nonzero;"/><path d="M28.429,11.768c-0.133,0.5 -0.734,2.268 -2.003,2.268c-1.519,0 -1.018,-2.552 -0.885,-3.052c0.2,-0.8 0.651,-2.251 1.903,-2.251c1.703,-0 1.118,2.518 0.985,3.035m-0.485,-3.703c-0.75,0 -1.536,0.334 -1.936,0.901l-0.05,-0l1.252,-5.472l-1.402,0c-0,0 -1.953,8.44 -2.488,10.908l0.785,0l0.634,-0.7c0.467,0.7 0.968,0.9 1.769,0.9c1.803,-0 2.988,-1.251 3.456,-3.419c0.334,-1.535 -0.1,-3.119 -2.02,-3.119" style="fill:#add500;fill-rule:nonzero;"/><path d="M50.396,13.419c0,-0.467 0.385,-0.851 0.852,-0.851c0.467,0 0.851,0.384 0.851,0.851c0,0.467 -0.384,0.851 -0.851,0.851c-0.467,-0 -0.852,-0.367 -0.852,-0.851Z" style="fill:#add500;fill-rule:nonzero;"/></g></g></svg>